# Created by FreeCAD <http://www.freecadweb.org>
v -0.000000 50.000000 375.000000
v -0.000000 -50.000000 375.000000
v 15.000000 -50.000000 375.000000
v 15.000000 50.000000 375.000000
v -0.000000 150.000000 255.000000
v 15.000000 150.000000 255.000000
v 0.000000 150.000000 75.000000
v 15.000000 150.000000 75.000000
v 0.000000 50.000000 -0.000000
v 15.000000 50.000000 -0.000000
v -0.000000 -50.000000 0.000000
v 15.000000 -50.000000 0.000000
v 15.000000 -150.000000 75.000000
v -0.000000 -150.000000 75.000000
v 15.000000 -150.000000 250.000000
v -0.000000 -150.000000 250.000000
v 15.000000 50.000000 -0.000000
v 15.000000 -50.000000 0.000000
vn 0.000000 0.000000 1.000000
vn -0.000000 0.000000 1.000000
vn 0.000000 0.768221 0.640184
vn -0.000000 0.768221 0.640184
vn 0.000000 1.000000 -0.000000
vn 0.000000 1.000000 0.000000
vn 0.000000 0.600000 -0.800000
vn 0.000000 0.600000 -0.800000
vn 0.000000 -0.000000 -1.000000
vn 0.000000 -0.000000 -1.000000
vn 0.000000 -0.600000 -0.800000
vn 0.000000 -0.600000 -0.800000
vn 0.000000 -1.000000 -0.000000
vn 0.000000 -1.000000 0.000000
vn 0.000000 -0.780869 0.624695
vn 0.000000 -0.780869 0.624695
vn -1.000000 0.000000 -0.000000
vn -1.000000 0.000000 -0.000000
vn -1.000000 0.000000 -0.000000
vn -1.000000 0.000000 -0.000000
vn -1.000000 0.000000 -0.000000
vn -1.000000 0.000000 -0.000000
vn 1.000000 -0.000000 0.000000
vn 1.000000 0.000000 0.000000
vn 1.000000 0.000000 0.000000
vn 1.000000 -0.000000 0.000000
vn 1.000000 0.000000 0.000000
vn 1.000000 0.000000 0.000000
f 1//1 2//1 3//1
f 1//2 3//2 4//2
f 5//3 1//3 4//3
f 5//4 4//4 6//4
f 7//5 5//5 6//5
f 7//6 6//6 8//6
f 9//7 7//7 8//7
f 9//8 8//8 10//8
f 11//9 9//9 10//9
f 11//10 10//10 12//10
f 13//11 11//11 12//11
f 14//12 11//12 13//12
f 15//13 14//13 13//13
f 16//14 14//14 15//14
f 2//15 16//15 15//15
f 2//16 15//16 3//16
f 16//17 2//17 1//17
f 16//18 1//18 5//18
f 9//19 5//19 7//19
f 9//20 16//20 5//20
f 11//21 16//21 9//21
f 14//22 16//22 11//22
f 3//23 15//23 4//23
f 4//24 15//24 6//24
f 6//25 17//25 8//25
f 15//26 17//26 6//26
f 15//27 18//27 17//27
f 15//28 13//28 18//28
