# Created by FreeCAD <http://www.freecadweb.org>
v -0.000000 1000.000000 1800.000000
v -0.000000 0.000000 1800.000000
v 28.000000 0.000000 1800.000000
v 28.000000 1000.000000 1800.000000
v 0.000000 0.000000 0.000000
v 28.000000 -0.000000 0.000000
v -0.000000 1000.000000 -0.000000
v 28.000000 1000.000000 -0.000000
v -0.000000 650.000000 1200.000000
v -0.000000 650.000000 1500.000000
v -0.000000 1000.000000 1800.000000
v -0.000000 350.000000 1500.000000
v -0.000000 0.000000 1800.000000
v -0.000000 350.000000 1200.000000
v 0.000000 1000.000000 -0.000000
v 28.000000 1000.000000 1800.000000
v 28.000000 0.000000 1800.000000
v 28.000000 972.000000 1772.000000
v 28.000000 28.000000 1772.000000
v 28.000000 972.000000 28.000000
v 28.000000 1000.000000 -0.000000
v 28.000000 28.000000 28.000000
v 28.000000 -0.000000 0.000000
v 1.000000 650.000000 1200.000000
v 1.000000 650.000000 1500.000000
v 1.000000 350.000000 1200.000000
v 1.000000 350.000000 1500.000000
v 1.000000 28.000000 1772.000000
v 1.000000 972.000000 1772.000000
v 1.000000 972.000000 28.000000
v 1.000000 28.000000 28.000000
v 1.000000 972.000000 28.000000
v 1.000000 28.000000 28.000000
v 1.000000 972.000000 1772.000000
v 1.000000 28.000000 1772.000000
vn 0.000000 0.000000 1.000000
vn -0.000000 0.000000 1.000000
vn -0.000000 -1.000000 0.000000
vn -0.000000 -1.000000 0.000000
vn 0.000000 1.000000 -0.000000
vn 0.000000 1.000000 0.000000
vn -1.000000 -0.000000 -0.000000
vn -1.000000 0.000000 -0.000000
vn -1.000000 0.000000 -0.000000
vn -1.000000 0.000000 -0.000000
vn -1.000000 -0.000000 -0.000000
vn -1.000000 0.000000 -0.000000
vn -1.000000 0.000000 -0.000000
vn -1.000000 0.000000 -0.000000
vn 1.000000 0.000000 0.000000
vn 1.000000 0.000000 0.000000
vn 1.000000 -0.000000 0.000000
vn 1.000000 -0.000000 0.000000
vn 1.000000 0.000000 0.000000
vn 1.000000 0.000000 0.000000
vn 1.000000 0.000000 0.000000
vn 1.000000 0.000000 0.000000
vn 0.000000 -0.000000 -1.000000
vn 0.000000 -0.000000 -1.000000
vn 0.000000 -1.000000 0.000000
vn 0.000000 -1.000000 0.000000
vn 0.000000 0.000000 1.000000
vn 0.000000 -0.000000 1.000000
vn 0.000000 1.000000 0.000000
vn 0.000000 1.000000 0.000000
vn -0.000000 0.000000 -1.000000
vn 0.000000 -0.000000 -1.000000
vn 0.000000 -0.000000 -1.000000
vn -0.000000 0.000000 -1.000000
vn 0.000000 -1.000000 0.000000
vn 0.000000 -1.000000 0.000000
vn 0.000000 -0.000000 1.000000
vn 0.000000 0.000000 1.000000
vn 0.000000 1.000000 0.000000
vn 0.000000 1.000000 0.000000
vn 1.000000 0.000000 0.000000
vn 1.000000 0.000000 -0.000000
vn 1.000000 0.000000 0.000000
vn 1.000000 0.000000 0.000000
vn 1.000000 0.000000 0.000000
vn 1.000000 0.000000 0.000000
vn 1.000000 0.000000 0.000000
vn 1.000000 0.000000 0.000000
f 1//1 2//1 3//1
f 1//2 3//2 4//2
f 2//3 5//3 6//3
f 2//4 6//4 3//4
f 7//5 1//5 4//5
f 7//6 4//6 8//6
f 9//7 10//7 11//7
f 12//8 11//8 10//8
f 13//9 11//9 12//9
f 14//10 13//10 12//10
f 15//11 9//11 11//11
f 5//12 14//12 9//12
f 5//13 9//13 15//13
f 5//14 13//14 14//14
f 16//15 17//15 18//15
f 17//16 19//16 18//16
f 18//17 20//17 16//17
f 20//18 21//18 16//18
f 20//19 22//19 21//19
f 22//20 23//20 21//20
f 17//21 23//21 19//21
f 19//22 23//22 22//22
f 5//23 7//23 8//23
f 5//24 8//24 6//24
f 24//25 10//25 9//25
f 24//26 25//26 10//26
f 26//27 9//27 14//27
f 26//28 24//28 9//28
f 27//29 14//29 12//29
f 27//30 26//30 14//30
f 25//31 12//31 10//31
f 25//32 27//32 12//32
f 18//33 19//33 28//33
f 18//34 28//34 29//34
f 30//35 18//35 29//35
f 20//36 18//36 30//36
f 22//37 20//37 30//37
f 22//38 30//38 31//38
f 28//39 22//39 31//39
f 19//40 22//40 28//40
f 32//41 24//41 33//41
f 32//42 34//42 24//42
f 24//43 26//43 33//43
f 34//44 25//44 24//44
f 25//45 35//45 27//45
f 27//46 35//46 26//46
f 26//47 35//47 33//47
f 34//48 35//48 25//48
