# Created by FreeCAD <http://www.freecadweb.org>
v -0.000000 1000.000000 1800.000000
v -0.000000 0.000000 1800.000000
v 28.000000 0.000000 1800.000000
v 28.000000 1000.000000 1800.000000
v 0.000000 0.000000 0.000000
v 28.000000 -0.000000 0.000000
v 0.000000 1000.000000 -0.000000
v 28.000000 1000.000000 -0.000000
v -0.000000 0.000000 1800.000000
v -0.000000 1000.000000 1800.000000
v -0.000000 1000.000000 -0.000000
v 28.000000 1000.000000 1800.000000
v 28.000000 0.000000 1800.000000
v 28.000000 972.000000 1772.000000
v 28.000000 28.000000 1772.000000
v 28.000000 972.000000 28.000000
v 28.000000 1000.000000 -0.000000
v 28.000000 28.000000 28.000000
v 28.000000 -0.000000 0.000000
v 26.000000 28.000000 1772.000000
v 26.000000 972.000000 1772.000000
v 26.000000 972.000000 28.000000
v 26.000000 28.000000 28.000000
v 26.000000 972.000000 28.000000
v 26.000000 972.000000 1772.000000
v 26.000000 28.000000 1772.000000
vn 0.000000 0.000000 1.000000
vn -0.000000 0.000000 1.000000
vn -0.000000 -1.000000 0.000000
vn -0.000000 -1.000000 0.000000
vn 0.000000 1.000000 -0.000000
vn 0.000000 1.000000 0.000000
vn -1.000000 -0.000000 -0.000000
vn -1.000000 -0.000000 -0.000000
vn 1.000000 0.000000 0.000000
vn 1.000000 0.000000 0.000000
vn 1.000000 -0.000000 0.000000
vn 1.000000 -0.000000 0.000000
vn 1.000000 0.000000 0.000000
vn 1.000000 0.000000 0.000000
vn 1.000000 0.000000 0.000000
vn 1.000000 0.000000 0.000000
vn 0.000000 -0.000000 -1.000000
vn 0.000000 -0.000000 -1.000000
vn 0.000000 -0.000000 -1.000000
vn -0.000000 0.000000 -1.000000
vn 0.000000 -1.000000 0.000000
vn 0.000000 -1.000000 0.000000
vn 0.000000 -0.000000 1.000000
vn 0.000000 0.000000 1.000000
vn 0.000000 1.000000 0.000000
vn 0.000000 1.000000 0.000000
vn 1.000000 0.000000 -0.000000
vn 1.000000 0.000000 0.000000
f 1//1 2//1 3//1
f 1//2 3//2 4//2
f 2//3 5//3 6//3
f 2//4 6//4 3//4
f 7//5 1//5 4//5
f 7//6 4//6 8//6
f 5//7 9//7 10//7
f 5//8 10//8 11//8
f 12//9 13//9 14//9
f 13//10 15//10 14//10
f 14//11 16//11 12//11
f 16//12 17//12 12//12
f 16//13 18//13 17//13
f 18//14 19//14 17//14
f 13//15 19//15 15//15
f 15//16 19//16 18//16
f 5//17 7//17 8//17
f 5//18 8//18 6//18
f 14//19 15//19 20//19
f 14//20 20//20 21//20
f 16//21 14//21 21//21
f 16//22 21//22 22//22
f 18//23 16//23 22//23
f 18//24 22//24 23//24
f 15//25 18//25 23//25
f 15//26 23//26 20//26
f 24//27 25//27 23//27
f 25//28 26//28 23//28
