# Created by FreeCAD <http://www.freecadweb.org>
v -0.000000 1000.000000 1800.000000
v -0.000000 0.000000 1800.000000
v 28.000000 0.000000 1800.000000
v 28.000000 1000.000000 1800.000000
v 0.000000 0.000000 0.000000
v 28.000000 -0.000000 0.000000
v -0.000000 1000.000000 -0.000000
v 28.000000 1000.000000 -0.000000
v 0.000000 1000.000000 -0.000000
v -0.000000 650.000000 600.000000
v -0.000000 1000.000000 1800.000000
v -0.000000 650.000000 300.000000
v -0.000000 350.000000 600.000000
v -0.000000 0.000000 1800.000000
v -0.000000 350.000000 300.000000
v 28.000000 1000.000000 1800.000000
v 28.000000 0.000000 1800.000000
v 28.000000 972.000000 1772.000000
v 28.000000 28.000000 1772.000000
v 28.000000 972.000000 28.000000
v 28.000000 1000.000000 -0.000000
v 28.000000 28.000000 28.000000
v 28.000000 -0.000000 0.000000
v 1.000000 650.000000 300.000000
v 1.000000 650.000000 600.000000
v 1.000000 350.000000 300.000000
v 1.000000 350.000000 600.000000
v 1.000000 28.000000 1772.000000
v 1.000000 972.000000 1772.000000
v 1.000000 972.000000 28.000000
v 1.000000 28.000000 28.000000
v 1.000000 972.000000 28.000000
v 1.000000 28.000000 28.000000
v 1.000000 972.000000 1772.000000
v 1.000000 28.000000 1772.000000
vn 0.000000 0.000000 1.000000
vn -0.000000 0.000000 1.000000
vn -0.000000 -1.000000 0.000000
vn -0.000000 -1.000000 0.000000
vn 0.000000 1.000000 -0.000000
vn 0.000000 1.000000 0.000000
vn -1.000000 0.000000 -0.000000
vn -1.000000 0.000000 -0.000000
vn -1.000000 0.000000 -0.000000
vn -1.000000 0.000000 -0.000000
vn -1.000000 0.000000 -0.000000
vn -1.000000 -0.000000 -0.000000
vn -1.000000 0.000000 -0.000000
vn -1.000000 -0.000000 -0.000000
vn 1.000000 0.000000 0.000000
vn 1.000000 0.000000 0.000000
vn 1.000000 -0.000000 0.000000
vn 1.000000 -0.000000 0.000000
vn 1.000000 0.000000 0.000000
vn 1.000000 0.000000 0.000000
vn 1.000000 0.000000 0.000000
vn 1.000000 0.000000 0.000000
vn 0.000000 -0.000000 -1.000000
vn 0.000000 -0.000000 -1.000000
vn 0.000000 -1.000000 0.000000
vn 0.000000 -1.000000 0.000000
vn 0.000000 0.000000 1.000000
vn 0.000000 -0.000000 1.000000
vn 0.000000 1.000000 0.000000
vn 0.000000 1.000000 0.000000
vn -0.000000 0.000000 -1.000000
vn 0.000000 -0.000000 -1.000000
vn 0.000000 -0.000000 -1.000000
vn -0.000000 0.000000 -1.000000
vn 0.000000 -1.000000 0.000000
vn 0.000000 -1.000000 0.000000
vn 0.000000 -0.000000 1.000000
vn 0.000000 0.000000 1.000000
vn 0.000000 1.000000 0.000000
vn 0.000000 1.000000 0.000000
vn 1.000000 0.000000 0.000000
vn 1.000000 0.000000 0.000000
vn 1.000000 0.000000 0.000000
vn 1.000000 0.000000 -0.000000
vn 1.000000 0.000000 -0.000000
vn 1.000000 0.000000 -0.000000
vn 1.000000 0.000000 0.000000
vn 1.000000 0.000000 0.000000
f 1//1 2//1 3//1
f 1//2 3//2 4//2
f 2//3 5//3 6//3
f 2//4 6//4 3//4
f 7//5 1//5 4//5
f 7//6 4//6 8//6
f 9//7 10//7 11//7
f 12//8 10//8 9//8
f 13//9 14//9 11//9
f 13//10 11//10 10//10
f 15//11 12//11 9//11
f 5//12 13//12 15//12
f 5//13 15//13 9//13
f 5//14 14//14 13//14
f 16//15 17//15 18//15
f 17//16 19//16 18//16
f 18//17 20//17 16//17
f 20//18 21//18 16//18
f 20//19 22//19 21//19
f 22//20 23//20 21//20
f 17//21 23//21 19//21
f 19//22 23//22 22//22
f 5//23 7//23 8//23
f 5//24 8//24 6//24
f 24//25 10//25 12//25
f 24//26 25//26 10//26
f 26//27 12//27 15//27
f 26//28 24//28 12//28
f 27//29 15//29 13//29
f 27//30 26//30 15//30
f 25//31 13//31 10//31
f 25//32 27//32 13//32
f 18//33 19//33 28//33
f 18//34 28//34 29//34
f 30//35 18//35 29//35
f 20//36 18//36 30//36
f 22//37 20//37 30//37
f 22//38 30//38 31//38
f 28//39 22//39 31//39
f 19//40 22//40 28//40
f 32//41 25//41 24//41
f 24//42 26//42 32//42
f 26//43 33//43 32//43
f 26//44 27//44 33//44
f 25//45 34//45 27//45
f 32//46 34//46 25//46
f 34//47 35//47 27//47
f 27//48 35//48 33//48
